# xmcd
#
# Track frame offsets:
#	150
#	15426
#	37291
#	54642
#	85603
#	104018
#	132455
#	152080
#	169726
#	189326
#	218279
#	236278
#
# Disc length: 3474 seconds
#
# Revision: 0
# Processed by: cddbd v1.5.2PL0 Copyright (c) Steve Scherf et al.
# Submitted via: SynApp - FreeCDDB Version: 2.3
#
DISCID=950d900c
DTITLE=Matt Walsh - Under Suspicion
DYEAR=00
DGENRE=Blues
TTITLE0=Techno Blues
TTITLE1=Top Heavy
TTITLE2=Checking Out
TTITLE3=Under Suspicion
TTITLE4=The Land Of The Blues
TTITLE5=Since My Baby«s Gone
TTITLE6=Working Stiff
TTITLE7=Me And Mine
TTITLE8=Who Dares
TTITLE9=Heartbreaker
TTITLE10=Joleen
TTITLE11=Always
EXTD=
EXTT0=
EXTT1=
EXTT2=
EXTT3=
EXTT4=
EXTT5=
EXTT6=
EXTT7=
EXTT8=
EXTT9=
EXTT10=
EXTT11=
PLAYORDER=
